<svg xmlns="http://www.w3.org/2000/svg" width="1200" height="630" viewBox="0 0 1200 630" role="img" aria-label="iOS 27: StoreKit 2 Abonelik Paketleri ve Satın Alma"><defs><linearGradient id="bg" x1="0" y1="0" x2="1" y2="1"><stop stop-color="#143b39"/><stop offset="1" stop-color="#168078"/></linearGradient><radialGradient id="halo"><stop stop-color="#99f6e4" stop-opacity=".28"/><stop offset="1" stop-color="#99f6e4" stop-opacity="0"/></radialGradient></defs><rect width="1200" height="630" fill="url(#bg)"/><circle cx="969" cy="307" r="300" fill="url(#halo)"/><circle cx="1188" cy="5" r="180" fill="#fff" opacity=".055"/><circle cx="22" cy="639" r="185" fill="#fff" opacity=".05"/><path d="M60 109H733" stroke="#99f6e4" stroke-opacity=".44" stroke-width="2"/><rect x="70" y="123" width="370" height="47" rx="22" fill="#fff" opacity=".13"/><text x="91" y="154" fill="#99f6e4" font-size="22" font-weight="700" letter-spacing="2" font-family="Arial,sans-serif">PEHLİVANLAR / TEKNOLOJİ</text><text x="70" y="279" font-family="Arial,Helvetica,sans-serif" font-size="58" font-weight="700" fill="#fff">iOS 27: StoreKit 2</text><text x="70" y="356" font-family="Arial,Helvetica,sans-serif" font-size="54" font-weight="700" fill="#fff">Abonelik Paketleri</text><text x="70" y="433" font-family="Arial,Helvetica,sans-serif" font-size="54" font-weight="700" fill="#fff">ve Satın Alma</text><path d="M70 540H730" stroke="#fff" stroke-opacity=".32" stroke-width="2"/><text x="70" y="581" font-family="Arial,Helvetica,sans-serif" font-size="26" fill="#99f6e4">22 EYLÜL 2026</text><rect x="795" y="149" width="293" height="324" rx="29" fill="#0f514a" stroke="#b0ffee" stroke-width="7"/><rect x="821" y="187" width="241" height="75" rx="12" fill="#2ba59b"/><rect x="821" y="287" width="110" height="113" rx="16" fill="#befcf0" opacity=".94"/><rect x="951" y="287" width="111" height="113" rx="16" fill="#5ad9cf"/><path d="M838 225h205M836 423h208" stroke="#dbfffb" stroke-width="12" stroke-linecap="round"/><circle cx="875" cy="341" r="20" fill="#14776d"/><circle cx="1005" cy="342" r="20" fill="#e6fffa"/></svg>